<svg width="360" height="661" viewBox="0 0 360 661" fill="none" xmlns="http://www.w3.org/2000/svg">
<path d="M359.948 661H63.5791C63.5791 661 31.5392 640.111 31.5392 589.877C31.5392 539.643 62.5778 512.287 68.5853 505.324C74.5927 498.361 123.153 453.923 150.187 431.714C177.22 409.505 204.624 383.5 224 366C243.376 348.5 259.391 332.5 255.818 305.88C246.684 237.818 50.4258 196.88 0 175.073V0C0 0 144.68 34.3183 204.755 51.2287C264.829 68.1392 359.967 92.9286 359.948 104.865C359.928 116.802 359.941 119.208 359.948 126.236C360.131 330.218 359.759 451.079 359.948 661Z" fill="url(#paint0_linear)"/>
<defs>
<linearGradient id="paint0_linear" x1="179.974" y1="0" x2="179.974" y2="661" gradientUnits="userSpaceOnUse">
<stop stop-color="#FFE45C"/>
<stop offset="1" stop-color="#FFC900"/>
</linearGradient>
</defs>
</svg>
