<svg width="963" height="945" viewBox="0 0 963 945" fill="none" xmlns="http://www.w3.org/2000/svg">
<path d="M531.921 56.3316C653.628 78.6979 738.321 92.2687 846.846 138.888C1001 205.109 974 848.297 921 895.297C868 942.297 833.415 948.749 635.887 942.797C438.359 936.845 348 880.4 348 880.4C348 880.4 285 836.738 285 770.297C285 703.856 306.9 679.797 324.5 657.797C342.1 635.797 395.5 598.797 436.5 572.297C477.5 545.797 532.171 507.419 571.426 484.273C610.68 461.127 643.125 439.965 635.887 404.757C617.381 314.735 170.237 241.318 117.619 231.747C65 222.177 0.000104332 183.365 0 109.297C-0.000104332 35.2291 77.5 -3.05301 117.619 0.190334C157.737 3.43367 410.214 33.9653 531.921 56.3316Z" fill="url(#paint0_linear)"/>
<defs>
<linearGradient id="paint0_linear" x1="31.5168" y1="-227.303" x2="486.252" y2="1051.58" gradientUnits="userSpaceOnUse">
<stop stop-color="#FFF54F"/>
<stop offset="1" stop-color="#FFC300"/>
</linearGradient>
</defs>
</svg>
